<?xml version="1.0" encoding="UTF-8" standalone="no"?>
<svg width="108px" height="27px" version="1.1" xmlns="http://www.w3.org/2000/svg" xmlns:xlink="http://www.w3.org/1999/xlink" xmlns:sketch="http://www.bohemiancoding.com/sketch/ns">
    <title>BuyButtonPressed</title>
    <description>Created with Sketch (http://www.bohemiancoding.com/sketch)</description>
    <defs>
        <linearGradient x1="50.0004768%" y1="95.8936313%" x2="50.0004768%" y2="0%" id="linearGradient-1">
            <stop stop-color="rgb(115,115,115)" offset="0%"></stop>
            <stop stop-color="rgb(154,154,154)" offset="14.4965023%"></stop>
            <stop stop-color="rgb(239,241,241)" offset="100%"></stop>
        </linearGradient>
        <linearGradient x1="50.0004768%" y1="95.8936313%" x2="50.0004768%" y2="0%" id="linearGradient-2">
            <stop stop-color="rgb(105,103,103)" offset="0%"></stop>
            <stop stop-color="rgb(144,142,142)" offset="14.4965023%"></stop>
            <stop stop-color="rgb(231,231,231)" offset="100%"></stop>
        </linearGradient>
        <linearGradient x1="50.0004768%" y1="0%" x2="50.0004768%" y2="95.8936313%" id="linearGradient-3">
            <stop stop-color="rgb(105,103,103)" offset="0%"></stop>
            <stop stop-color="rgb(144,142,142)" offset="14.4965023%"></stop>
            <stop stop-color="rgb(231,231,231)" offset="100%"></stop>
        </linearGradient>
    </defs>
    <g id="Button" fill="rgb(223,223,223)" fill-rule="evenodd">
        <path d="M107.021004,14.0400009 C107.021004,20.6400008 101.621004,26.0400009 95.0210037,26.0400009 L12,26.0400009 C5.4000001,26.0400009 0,20.6400008 0,14.0400009 L0,12 C0,5.39999962 5.39999962,0 12,0 L95.0210037,0 C101.621004,0 107.021004,5.4000001 107.021004,12 L107.021004,14.0400009 L107.021004,14.0400009 L107.021004,14.0400009" id="black" fill="rgb(50,50,50)"></path>
        <path d="M106,13.5 C106,19.8249998 100.825,25 94.5,25 L12.5,25 C6.17500019,25 1,19.8250008 1,13.5 L1,12.5 C1,6.17500019 6.17500019,1 12.5,1 L94.5,1 C100.825,1 106,6.17500019 106,12.5 L106,13.5 L106,13.5 L106,13.5" id="gradient" fill="url(#linearGradient-1)"></path>
        <path d="M106,13.5 C106,19.8249998 100.825,25 94.5,25 L12.5,25 C6.17500019,25 1,19.8250008 1,13.5 L1,12.5 C1,6.17500019 6.17500019,1 12.5,1 L94.5,1 C100.825,1 106,6.17500019 106,12.5 L106,13.5 L106,13.5 L106,13.5" id="gradient dark" fill="url(#linearGradient-2)"></path>
        <path d="M106,13.5 C106,19.8249998 100.825,25 94.5,25 L12.5,25 C6.17500019,25 1,19.8250008 1,13.5 L1,12.5 C1,6.17500019 6.17500019,1 12.5,1 L94.5,1 C100.825,1 106,6.17500019 106,12.5 L106,13.5 L106,13.5 L106,13.5" id="gradient dark invert" fill="url(#linearGradient-3)"></path>
    </g>
</svg>